<svg xmlns="http://www.w3.org/2000/svg" viewBox="0 0 560 148" width="560" height="148"><g transform="translate(-64.22,-52.71) scale(0.3966)"><path d="M219.6,335.1 L220.6,337.2 L221.6,339.2 L222.6,341.2 L223.6,343.2 L224.7,345.3 L225.8,347.3 L226.9,349.4 L228.0,351.4 L229.1,353.5 L230.3,355.5 L231.5,357.6 L232.7,359.6 L234.0,361.7 L235.2,363.8 L236.5,365.9 L237.8,368.0 L239.2,370.1 L240.5,372.2 L241.9,374.3 L243.3,376.4 L244.8,378.5 L246.2,380.6 L247.7,382.7 L249.2,384.8 L250.7,386.9 L252.2,389.1 L253.8,391.2 L255.4,393.3 L257.0,395.4 L258.6,397.5 L260.3,399.6 L261.9,401.8 L263.6,403.9 L265.3,406.0 L267.1,408.1 L268.8,410.2 L270.6,412.3 L272.4,414.4 L274.2,416.5 L276.0,418.5 L277.9,420.6 L279.7,422.7 L281.6,424.7 L283.5,426.8 L285.4,428.8 L287.4,430.9 L289.3,432.9 L291.3,434.9 L293.3,436.9 L295.3,438.9 L297.3,440.9 L299.4,442.9 L301.4,444.8 L303.5,446.7 L305.6,448.6 L307.8,450.5 L309.9,452.4 L312.1,454.2 L314.4,456.0 L316.6,457.7 L318.9,459.4 L321.2,461.1 L323.5,462.7 L325.9,464.4 L328.3,465.9 L330.7,467.5 L333.1,469.0 L335.6,470.4 L338.0,471.8 L340.5,473.2 L343.0,474.6 L345.6,475.9 L348.1,477.1 L350.6,478.4 L353.2,479.5 L355.8,480.7 L358.3,481.8 L360.9,482.9 L363.5,483.9 L366.1,484.9 L368.7,485.8 L371.4,486.7 L374.0,487.6 L376.6,488.4 L379.2,489.2 L381.8,490.0 L384.5,490.7 L387.1,491.4 L389.7,492.0 L392.3,492.6 L394.9,493.1 L397.5,493.6 L400.1,494.1 L402.7,494.5 L405.3,494.9 L407.8,495.3 L410.4,495.6 L413.0,495.9 L415.5,496.1 L418.0,496.3 L420.5,496.4 L423.1,496.6 L425.5,496.6 L428.0,496.7 L430.5,496.7 L433.0,496.6 L435.4,496.5 L437.8,496.4 L440.2,496.3 L442.6,496.1 L445.0,495.9 L447.4,495.6 L449.7,495.3 L452.1,495.0 L454.4,494.6 L456.7,494.2 L459.1,493.8 L461.4,493.3 L463.6,492.8 L465.9,492.2 L468.2,491.6 L470.5,491.0 L472.7,490.4 L475.0,489.7 L477.2,489.0 L479.5,488.2 L481.7,487.4 L483.9,486.6 L486.2,485.8 L488.0,484.0 L488.0,484.0 L485.4,483.6 L483.2,484.3 L480.9,484.8 L478.7,485.4 L476.5,485.9 L474.2,486.3 L472.0,486.7 L469.8,487.0 L467.6,487.3 L465.4,487.5 L463.1,487.6 L460.9,487.7 L458.7,487.6 L456.5,487.6 L454.3,487.4 L452.1,487.2 L450.0,486.9 L447.8,486.6 L445.7,486.2 L443.5,485.7 L441.4,485.2 L439.3,484.6 L437.2,484.0 L435.1,483.3 L433.1,482.6 L431.0,481.8 L429.0,481.0 L427.0,480.1 L425.0,479.1 L423.0,478.2 L421.0,477.1 L419.1,476.1 L417.2,475.0 L415.3,473.8 L413.4,472.6 L411.5,471.4 L409.6,470.2 L407.8,468.9 L406.0,467.5 L404.1,466.2 L402.3,464.8 L400.5,463.4 L398.8,461.9 L397.0,460.5 L395.3,459.0 L393.5,457.4 L391.8,455.9 L390.1,454.3 L388.4,452.7 L386.7,451.1 L385.1,449.5 L383.4,447.8 L381.7,446.2 L380.1,444.5 L378.5,442.8 L376.8,441.1 L375.2,439.4 L373.6,437.7 L372.0,435.9 L370.4,434.2 L368.8,432.4 L367.1,430.6 L365.5,428.9 L364.0,427.1 L362.4,425.3 L360.8,423.5 L359.2,421.7 L357.6,420.0 L356.0,418.2 L354.4,416.4 L352.8,414.6 L351.2,412.8 L349.6,411.0 L348.0,409.2 L346.4,407.4 L344.8,405.6 L343.2,403.8 L341.6,402.0 L340.1,400.2 L338.5,398.4 L337.0,396.5 L335.4,394.7 L333.9,392.8 L332.4,391.0 L330.9,389.1 L329.4,387.3 L327.9,385.4 L326.5,383.5 L325.1,381.6 L323.6,379.7 L322.3,377.8 L320.9,375.9 L319.5,374.0 L318.2,372.2 L316.8,370.3 L315.5,368.3 L314.3,366.4 L313.0,364.6 L311.7,362.7 L310.5,360.8 L309.3,358.9 L308.1,357.0 L307.0,355.1 L305.8,353.2 L304.7,351.4 L303.6,349.5 L302.5,347.6 L301.5,345.8 L300.4,343.9 L299.4,342.1 L298.5,340.3 L297.5,338.5 L296.6,336.7 L295.7,334.9 L294.8,333.2 L293.9,331.4 L293.1,329.7 L292.3,328.0 L291.5,326.3 L290.7,324.6 L290.0,323.0 L289.3,321.3 L288.6,319.7 L288.0,318.1 L287.4,316.5 L286.7,315.0 L286.2,313.4 L285.6,311.9 L285.0,310.4 L284.4,308.9 Z" fill="#1e57a8" stroke="#e8f1ff" stroke-width="2.4" stroke-linejoin="round"></path><path d="M242,150 L300,143 C360,143 410,150 432,196 C446,226 446,262 430,292 C410,332 360,340 300,340 L242,340 Z M238,192 C300,190 345,196 360,222 C368,242 366,260 352,278 C334,300 290,300 238,300 Z" fill="#0d3169" fill-rule="evenodd" stroke="#e8f1ff" stroke-width="2.4" stroke-linejoin="round"></path><path d="M172,150 Q207,159 242,150 L242,491 Q207,470 172,491 Z" fill="#164687" stroke="#e8f1ff" stroke-width="2.4" stroke-linejoin="round"></path></g><path d="M153.35 82.13L134.52 82.13L134.52 4.00L166.72 4.00Q175.53 4.00 181.93 7.17Q188.32 10.34 191.81 16.19Q195.30 22.04 195.30 30.01L195.30 30.01Q195.30 38.14 191.79 43.80L191.79 43.80Q188.22 49.41 181.72 52.40L181.72 52.40L197.97 82.13L177.31 82.13L163.05 55.39L153.35 55.39L153.35 82.13ZM153.35 19.26L153.35 40.50L162.68 40.50Q166.93 40.50 169.84 39.39Q172.75 38.29 174.25 35.96Q175.74 33.63 175.74 30.01Q175.74 26.39 174.25 24.00Q172.75 21.62 169.84 20.44Q166.93 19.26 162.63 19.26L162.63 19.26L153.35 19.26ZM227.92 83.23L227.92 83.23Q218.69 83.23 212.03 79.59Q205.37 75.94 201.83 69.18Q198.29 62.41 198.29 53.03L198.29 53.03Q198.29 43.96 201.86 37.17Q205.42 30.38 211.92 26.57Q218.43 22.77 227.23 22.77L227.23 22.77Q233.47 22.77 238.69 24.74Q243.91 26.70 247.71 30.51Q251.51 34.31 253.58 39.87Q255.65 45.42 255.65 52.71L255.65 52.71L255.65 57.33L216.59 57.33Q216.75 60.89 218.06 63.57L218.06 63.57Q219.47 66.56 222.12 68.16Q224.77 69.75 228.23 69.75L228.23 69.75Q230.64 69.75 232.64 69.07Q234.63 68.39 236.04 67.05Q237.46 65.72 238.19 63.83L238.19 63.83L255.29 64.30Q254.24 70.07 250.67 74.32Q247.11 78.56 241.34 80.90Q235.57 83.23 227.92 83.23ZM216.69 46.58L216.69 46.58L237.98 46.58Q237.67 44.11 236.88 42.17L236.88 42.17Q235.68 39.34 233.32 37.77Q230.96 36.20 227.44 36.20Q223.93 36.20 221.52 37.77Q219.11 39.34 217.85 42.12L217.85 42.12Q216.96 44.11 216.69 46.58ZM297.34 23.51L316.75 23.51L296.61 82.13L275.22 82.13L255.24 23.51L274.90 23.51L285.91 63.88L286.54 63.88L297.34 23.51ZM346.11 83.23L346.11 83.23Q336.88 83.23 330.22 79.59Q323.56 75.94 320.02 69.18Q316.49 62.41 316.49 53.03L316.49 53.03Q316.49 43.96 320.05 37.17Q323.62 30.38 330.12 26.57Q336.62 22.77 345.43 22.77L345.43 22.77Q351.67 22.77 356.89 24.74Q362.11 26.70 365.91 30.51Q369.71 34.31 371.78 39.87Q373.85 45.42 373.85 52.71L373.85 52.71L373.85 57.33L334.79 57.33Q334.94 60.89 336.25 63.57L336.25 63.57Q337.67 66.56 340.32 68.16Q342.97 69.75 346.43 69.75L346.43 69.75Q348.84 69.75 350.83 69.07Q352.82 68.39 354.24 67.05Q355.66 65.72 356.39 63.83L356.39 63.83L373.48 64.30Q372.44 70.07 368.87 74.32Q365.30 78.56 359.54 80.90Q353.77 83.23 346.11 83.23ZM334.89 46.58L334.89 46.58L356.18 46.58Q355.87 44.11 355.08 42.17L355.08 42.17Q353.87 39.34 351.51 37.77Q349.15 36.20 345.64 36.20Q342.13 36.20 339.71 37.77Q337.30 39.34 336.04 42.12L336.04 42.12Q335.15 44.11 334.89 46.58ZM394.67 83.18L394.67 83.18Q389.06 83.18 384.68 81.26Q380.30 79.35 377.84 75.52Q375.37 71.70 375.37 65.87L375.37 65.87Q375.37 61.00 377.08 57.64Q378.78 54.29 381.80 52.19Q384.81 50.09 388.74 48.96Q392.68 47.84 397.13 47.52L397.13 47.52Q402.12 47.05 405.16 46.58Q408.20 46.11 409.59 45.11Q410.98 44.11 410.98 42.33L410.98 42.33L410.98 42.07Q410.98 39.18 408.99 37.56Q406.99 35.93 403.53 35.93L403.53 35.93Q399.81 35.93 397.58 37.56Q395.35 39.18 394.72 41.96L394.72 41.96L377.58 41.39Q378.31 36.04 381.48 31.82Q384.65 27.60 390.24 25.18Q395.82 22.77 403.74 22.77L403.74 22.77Q409.30 22.77 414.02 24.08Q418.74 25.39 422.25 27.91Q425.77 30.43 427.71 34.05Q429.65 37.66 429.65 42.28L429.65 42.28L429.65 82.13L412.08 82.13L412.08 73.90L411.66 73.90Q410.03 76.94 407.62 78.98Q405.21 81.03 401.99 82.10Q398.76 83.18 394.67 83.18ZM400.39 70.91L400.39 70.91Q403.37 70.91 405.81 69.68Q408.25 68.44 409.69 66.29Q411.14 64.14 411.14 61.26L411.14 61.26L411.14 55.75Q410.35 56.17 409.22 56.51Q408.09 56.86 406.73 57.17Q405.37 57.48 403.98 57.69Q402.59 57.90 401.33 58.11L401.33 58.11Q398.66 58.48 396.79 59.40Q394.93 60.32 393.99 61.68Q393.04 63.04 393.04 64.98L393.04 64.98Q393.04 67.87 395.09 69.39Q397.13 70.91 400.39 70.91ZM436.31 4.00L454.97 4.00L454.97 82.13L436.31 82.13L436.31 4.00Z" fill="#f8fafd"></path><path d="M508.88 52.77L508.88 4.00L527.71 4.00L527.71 54.34Q527.71 63.10 523.56 69.57Q519.42 76.05 511.97 79.61Q504.53 83.18 494.67 83.18L494.67 83.18Q484.76 83.18 477.34 79.61Q469.92 76.05 465.78 69.57Q461.64 63.10 461.64 54.34L461.64 54.34L461.64 4.00L480.46 4.00L480.46 52.77Q480.46 56.86 482.27 60.00Q484.08 63.15 487.28 64.93Q490.48 66.71 494.67 66.71L494.67 66.71Q498.87 66.71 502.06 64.93Q505.26 63.15 507.07 60.00Q508.88 56.86 508.88 52.77L508.88 52.77ZM534.37 4.00L553.19 4.00L553.19 82.13L534.37 82.13L534.37 4.00Z" fill="#eeb300"></path></svg>